<?xml version="1.0"?>
<svg xmlns="http://www.w3.org/2000/svg" enable-background="new 0 0 24 24" height="512px" viewBox="0 0 24 24" width="512px" class=""><g><path d="m23.093 17.75-16.32 1.5v-13.5l16.32 1.5z" fill="#4caf50" data-original="#4CAF50" class="" data-old_color="#4caf50" style="fill:#AF4C4C"/><path d="m5.576 5.75v13.5l-1.683-.477-1.35-.387-2.25-.639v-10.494l2.25-.639 1.35-.387z" fill="#66bb6a" data-original="#66BB6A" class="active-path" style="fill:#AF4C4C" data-old_color="#66bb6a"/><path d="m6.25 20c-.187 0-.367-.069-.507-.197-.155-.142-.243-.343-.243-.553v-13.5c0-.21.088-.411.243-.553s.357-.214.573-.194l17 1.5c.387.034.684.358.684.747v10.5c0 .389-.297.713-.684.747l-17 1.5c-.022.002-.045.003-.066.003zm.75-13.431v11.861l15.5-1.367v-9.126zm16.25 11.181h.01z" data-original="#000000" class="" style="fill:#000000" data-old_color="#000000"/><path d="m6.25 20c-.064 0-.131-.009-.197-.026l-5.5-1.5c-.326-.089-.553-.386-.553-.724v-10.5c0-.338.227-.635.553-.724l5.5-1.5c.404-.112.812.127.921.526s-.127.812-.526.921l-4.948 1.35v9.354l4.947 1.35c.399.109.636.521.526.921-.09.333-.393.552-.723.552z" data-original="#000000" class="" style="fill:#000000" data-old_color="#000000"/><path d="m3.25 19.18c-.414 0-.75-.336-.75-.75v-11.86c0-.414.336-.75.75-.75s.75.336.75.75v11.86c0 .414-.336.75-.75.75z" data-original="#000000" class="" style="fill:#000000" data-old_color="#000000"/><path d="m9.25 17c-.414 0-.75-.336-.75-.75v-7.5c0-.414.336-.75.75-.75s.75.336.75.75v7.5c0 .414-.336.75-.75.75z" data-original="#000000" class="" style="fill:#000000" data-old_color="#000000"/><path d="m13.25 16.5c-.414 0-.75-.336-.75-.75v-6.5c0-.414.336-.75.75-.75s.75.336.75.75v6.5c0 .414-.336.75-.75.75z" data-original="#000000" class="" style="fill:#000000" data-old_color="#000000"/><path d="m17.25 16c-.414 0-.75-.336-.75-.75v-5.5c0-.414.336-.75.75-.75s.75.336.75.75v5.5c0 .414-.336.75-.75.75z" data-original="#000000" class="" style="fill:#000000" data-old_color="#000000"/><path d="m20.75 15.75c-.414 0-.75-.336-.75-.75v-4.75c0-.414.336-.75.75-.75s.75.336.75.75v4.75c0 .414-.336.75-.75.75z" data-original="#000000" class="" style="fill:#000000" data-old_color="#000000"/></g> </svg>
